<?xml version="1.0" encoding="UTF-8"?>
<svg id="Layer_1" data-name="Layer 1" xmlns="http://www.w3.org/2000/svg" viewBox="0 0 210 160">
  <defs>
    <style>
      .cls-1 {
        fill: #fff;
      }
    </style>
  </defs>
  <path class="cls-1" d="M176.67,58.1c-.95-1.95-2.02-3.85-3.19-5.66l-1.68,1.09c1.13,1.74,2.16,3.58,3.07,5.45l1.8-.87Z"/>
  <path class="cls-1" d="M67.73,16.77l.04,2c1.87-.03,3.77-.05,5.69-.05h.68s0-2,0-2h-.69c-1.93,0-3.84.02-5.73.05Z"/>
  <path class="cls-1" d="M16.61,21.48l.36,1.97s2.32-.43,6.29-1.01l-.29-1.98c-4.01.59-6.34,1.02-6.36,1.02Z"/>
  <path class="cls-1" d="M42.1,18.2l.18,1.99c2.03-.19,4.16-.36,6.36-.53l-.15-1.99c-2.21.16-4.35.34-6.4.53Z"/>
  <path class="cls-1" d="M54.9,17.25l.11,2c2.07-.12,4.2-.22,6.38-.3l-.08-2c-2.18.08-4.32.18-6.41.3Z"/>
  <path class="cls-1" d="M180.52,83.25l2-.06c-.07-2.2-.23-4.37-.49-6.46l-1.98.24c.25,2.03.41,4.14.47,6.28Z"/>
  <path class="cls-1" d="M174.31,120.59l1.9.62c.68-2.08,1.3-4.16,1.87-6.16l-1.93-.54c-.56,1.98-1.18,4.03-1.84,6.08Z"/>
  <path class="cls-1" d="M180.93,70.35c-.48-2.14-1.08-4.24-1.77-6.24l-1.89.65c.67,1.94,1.25,3.96,1.71,6.03l1.95-.44Z"/>
  <path class="cls-1" d="M180.98,102.49l-1.97-.35c-.36,2.03-.79,4.12-1.28,6.21l1.95.45c.49-2.13.93-4.25,1.3-6.32Z"/>
  <path class="cls-1" d="M29.34,19.59l.25,1.98c1.93-.25,4.05-.5,6.34-.75l-.22-1.99c-2.3.25-4.43.5-6.38.75Z"/>
  <path class="cls-1" d="M80.53,18.8c2.16.05,4.3.13,6.38.23l.1-2c-2.09-.1-4.25-.18-6.42-.23l-.05,2Z"/>
  <path class="cls-1" d="M142.72,30.3c1.97.86,3.89,1.78,5.7,2.74l.93-1.77c-1.86-.98-3.82-1.92-5.83-2.8l-.8,1.83Z"/>
  <path class="cls-1" d="M153.89,36.19c1.8,1.14,3.54,2.36,5.16,3.62l1.22-1.58c-1.67-1.29-3.46-2.54-5.31-3.72l-1.07,1.69Z"/>
  <path class="cls-1" d="M174.12,127.29l-1.88-.69c-.26.7-.53,1.42-.8,2.13l-4.97-6.57-.21,21.49,15.2-15.2-8.18,1.06c.28-.74.57-1.49.84-2.23Z"/>
  <path class="cls-1" d="M179.94,95.88l1.99.23c.25-2.18.43-4.35.53-6.44l-2-.1c-.1,2.05-.27,4.17-.52,6.31Z"/>
  <path class="cls-1" d="M169.63,47.2c-1.36-1.64-2.86-3.23-4.44-4.75l-1.38,1.45c1.53,1.46,2.97,3,4.28,4.58l1.54-1.28Z"/>
  <path class="cls-1" d="M130.82,25.94c2.05.62,4.08,1.3,6.02,2.01l.69-1.88c-1.97-.72-4.03-1.41-6.12-2.04l-.58,1.91Z"/>
  <path class="cls-1" d="M105.94,20.71c2.14.28,4.27.6,6.3.95l.33-1.97c-2.06-.35-4.2-.67-6.37-.96l-.26,1.98Z"/>
  <path class="cls-1" d="M93.27,19.42c2.14.16,4.28.34,6.35.55l.2-1.99c-2.09-.21-4.24-.4-6.4-.56l-.15,1.99Z"/>
  <path class="cls-1" d="M118.5,22.83c2.1.43,4.18.91,6.2,1.42l.49-1.94c-2.04-.51-4.16-1-6.28-1.44l-.41,1.96Z"/>
</svg>