<?xml version="1.0" encoding="UTF-8"?>
<svg id="Main_UI" xmlns="http://www.w3.org/2000/svg" viewBox="0 0 260 200">
  <defs>
    <style>
      .cls-1 {
        fill: #fff;
      }
    </style>
  </defs>
  <path class="cls-1" d="M26.12,138.31c1.13,2.18,2.36,4.31,3.66,6.34l1.9-1.22c-1.27-1.97-2.46-4.05-3.56-6.16l-2.01,1.04Z"/>
  <path class="cls-1" d="M44.15,161.2c1.82,1.57,3.76,3.1,5.75,4.53l1.32-1.84c-1.94-1.39-3.82-2.87-5.59-4.4l-1.48,1.71Z"/>
  <path class="cls-1" d="M21.47,45.58l2.2.54c.56-2.29,1.17-4.64,1.81-6.97l-2.18-.6c-.65,2.35-1.27,4.72-1.83,7.04Z"/>
  <path class="cls-1" d="M20.56,124.79c.74,2.35,1.58,4.66,2.49,6.88l2.09-.86c-.88-2.16-1.7-4.42-2.42-6.71l-2.16.68Z"/>
  <path class="cls-1" d="M34.03,150.63c1.5,1.91,3.12,3.77,4.81,5.53l1.63-1.56c-1.64-1.71-3.21-3.51-4.66-5.36l-1.78,1.4Z"/>
  <path class="cls-1" d="M18.17,81.61l-2.26-.13c-.14,2.44-.22,4.89-.25,7.28l2.26.02c.02-2.35.11-4.77.24-7.18Z"/>
  <path class="cls-1" d="M22.07,53.14l-2.21-.47c-.5,2.38-.97,4.78-1.38,7.14l2.23.39c.41-2.33.87-4.71,1.37-7.07Z"/>
  <path class="cls-1" d="M29.73,25.38l-2.14-.73c-.78,2.27-1.53,4.6-2.25,6.92l2.16.67c.71-2.3,1.46-4.6,2.23-6.85Z"/>
  <path class="cls-1" d="M19.45,110.2l-2.23.36c.39,2.43.87,4.84,1.41,7.17l2.2-.51c-.53-2.28-1-4.64-1.38-7.02Z"/>
  <path class="cls-1" d="M19.58,67.31l-2.24-.31c-.34,2.41-.63,4.84-.86,7.23l2.25.22c.23-2.35.52-4.75.85-7.14Z"/>
  <path class="cls-1" d="M56.03,169.72c2.05,1.22,4.21,2.39,6.42,3.49l1-2.03c-2.16-1.07-4.27-2.21-6.27-3.4l-1.16,1.94Z"/>
  <path class="cls-1" d="M18.04,95.96l-2.26.09c.1,2.46.27,4.91.5,7.28l2.25-.22c-.23-2.32-.4-4.73-.5-7.15Z"/>
  <path class="cls-1" d="M32.78,11.02c-.04.1-1.12,2.51-2.73,6.79l2.11.8c1.59-4.21,2.67-6.64,2.69-6.67l-2.06-.92Z"/>
  <path class="cls-1" d="M169.23,182.35l.25,2.25c2.37-.26,4.76-.55,7.2-.87l-.29-2.24c-2.42.31-4.81.6-7.16.86Z"/>
  <path class="cls-1" d="M69.1,176.21c2.21.9,4.51,1.76,6.83,2.54l.72-2.14c-2.28-.77-4.54-1.61-6.7-2.49l-.86,2.09Z"/>
  <path class="cls-1" d="M183.54,180.51l.32,2.24c2.36-.34,4.74-.71,7.16-1.09l-.36-2.23c-2.41.39-4.79.75-7.13,1.09Z"/>
  <path class="cls-1" d="M211.97,175.57l.45,2.22c2.34-.47,4.7-.96,7.09-1.47l-.47-2.21c-2.38.51-4.74.99-7.07,1.46Z"/>
  <path class="cls-1" d="M197.78,178.23l.39,2.23c2.35-.41,4.72-.84,7.13-1.29l-.42-2.22c-2.4.45-4.76.88-7.1,1.29Z"/>
  <path class="cls-1" d="M154.88,183.68l.16,2.25c2.36-.17,4.79-.37,7.23-.6l-.21-2.25c-2.42.22-4.84.42-7.18.6Z"/>
  <path class="cls-1" d="M140.49,184.41l.06,2.26c2.39-.07,4.83-.16,7.25-.29l-.12-2.26c-2.4.12-4.83.22-7.2.29Z"/>
  <path class="cls-1" d="M97.12,184c2.34.4,4.76.76,7.19,1.07l.29-2.24c-2.4-.31-4.79-.67-7.1-1.06l-.38,2.23Z"/>
  <path class="cls-1" d="M82.91,180.87c2.29.63,4.67,1.21,7.07,1.74l.48-2.21c-2.36-.52-4.71-1.09-6.96-1.71l-.6,2.18Z"/>
  <path class="cls-1" d="M132.74,184.52c-2.25,0-4.49-.03-6.65-.08l-.06,2.26c2.18.06,4.44.08,6.71.08h.56s-.01-2.26-.01-2.26h-.54Z"/>
  <path class="cls-1" d="M111.53,185.86c2.36.21,4.8.39,7.24.53l.13-2.26c-2.42-.14-4.83-.32-7.17-.53l-.21,2.25Z"/>
  <polygon class="cls-1" points="223.44 183.6 243.32 169.64 219.35 165.69 226.19 173.02 226.42 174.04 223.44 183.6"/>
</svg>