<?xml version="1.0" encoding="UTF-8"?>
<svg id="Main_UI" xmlns="http://www.w3.org/2000/svg" viewBox="0 0 120 175">
  <defs>
    <style>
      .cls-1 {
        fill: #fff;
      }
    </style>
  </defs>
  <path class="cls-1" d="M23.37,96.67c.58,2,1.22,4.08,1.89,6.15l1.9-.62c-.67-2.06-1.29-4.11-1.87-6.1l-1.92.56Z"/>
  <path class="cls-1" d="M27.31,108.91c.69,1.96,1.43,4,2.21,6.04l1.87-.71c-.77-2.03-1.51-4.04-2.19-5.99l-1.89.66Z"/>
  <path class="cls-1" d="M22.12,39.56l1.79.89c.94-1.89,2.04-3.65,3.28-5.23l-1.58-1.23c-1.32,1.69-2.5,3.57-3.5,5.57Z"/>
  <path class="cls-1" d="M20.13,71.23l-1.99.21c.22,2.06.51,4.22.87,6.4l1.97-.32c-.35-2.15-.64-4.26-.86-6.29Z"/>
  <path class="cls-1" d="M31.87,120.93c.82,2.02,1.64,4,2.47,5.93l1.84-.79c-.82-1.92-1.64-3.89-2.45-5.9l-1.85.75Z"/>
  <path class="cls-1" d="M21.65,46.24l-1.92-.57c-.6,2-1.08,4.14-1.42,6.37l1.98.31c.33-2.14.79-4.2,1.36-6.11Z"/>
  <path class="cls-1" d="M19.6,61.86c0-1.1.02-2.2.07-3.26l-2-.09c-.05,1.09-.08,2.22-.08,3.35,0,1.03.02,2.08.06,3.13l2-.08c-.04-1.03-.06-2.05-.06-3.05Z"/>
  <path class="cls-1" d="M22.17,83.77l-1.96.42c.43,2.04.93,4.15,1.46,6.27l1.94-.49c-.53-2.09-1.02-4.18-1.45-6.2Z"/>
  <path class="cls-1" d="M54.42,20.46l.17,1.99c2-.17,4.12-.26,6.3-.27v-2c-2.24,0-4.42.1-6.48.28Z"/>
  <path class="cls-1" d="M48.27,155.82c1.92,3.56,3.12,5.64,3.13,5.66l1.73-1.01s-1.2-2.07-3.1-5.6l-1.76.95Z"/>
  <path class="cls-1" d="M67.22,22.38c2.04.13,4.17.32,6.32.58l.23-1.99c-2.19-.26-4.35-.46-6.42-.59l-.13,2Z"/>
  <path class="cls-1" d="M36.92,132.75c.91,2.02,1.81,3.97,2.69,5.84l1.81-.85c-.87-1.86-1.77-3.8-2.67-5.81l-1.82.82Z"/>
  <path class="cls-1" d="M30.2,29.26l1.28,1.54c1.55-1.29,3.27-2.45,5.13-3.45l-.95-1.76c-1.97,1.06-3.81,2.3-5.46,3.67Z"/>
  <path class="cls-1" d="M47.99,21.35c-2.21.43-4.33.98-6.31,1.65l.64,1.89c1.89-.64,3.92-1.17,6.05-1.58l-.38-1.96Z"/>
  <path class="cls-1" d="M42.39,144.38c1.02,2.07,1.99,3.99,2.89,5.74l1.78-.91c-.89-1.74-1.86-3.65-2.87-5.71l-1.79.88Z"/>
  <path class="cls-1" d="M99.42,27.14l-17.57-12.38,2.43,7.85c-1.39-.26-2.78-.52-4.13-.74l-.32,1.97c1.32.22,2.67.46,4.03.72l-5.65,6.04,21.21-3.47Z"/>
</svg>