<?xml version="1.0" encoding="UTF-8"?>
<svg id="Layer_1" data-name="Layer 1" xmlns="http://www.w3.org/2000/svg" viewBox="0 0 110 110">
  <path d="M54.23,80.57c-.06-2.63-.2-5.77-.57-8.37-.53-3.73-4.39-4.85-7.23-6.69-2.61-1.7-4.7-3.63-6.9-5.82-2.38-2.37-4.77-5.29-7.29-7.46-1.6-1.38-3.36-1.7-5.39-1.05-.58.19-1.03.52-1.57.78-1.29-3.91-1.42-8.57-5.68-10.49-5.05-2.29-8.15,1.26-7.87,6.21,1.33,5.73,2.61,11.53,4.17,17.21,1.06,3.86,1.98,5.88,4.81,8.74,3.65,3.68,7.61,7.07,11.25,10.78l.05,10.41h22.12c-.1-4.75.21-9.49.1-14.24ZM51,91.68h-15.76l-.05-8.66c-2.56-2.48-5.09-4.99-7.65-7.47-1.67-1.62-3.59-3.21-5.17-4.88-2.91-3.09-3.27-6.5-4.26-10.4-1.16-4.58-2.66-9.22-3.26-13.89.04-.77.37-2.01,1.08-2.42.81-.48,2.66.29,3.35.86,1.56,1.28,2.06,4.8,2.6,6.7.75,2.61,1.49,5.37,2.57,7.85l11.13,12.74h.19s2.08-1.8,2.08-1.8l.12-.31-11-12.52c-.33-1.3-.68-2.89.94-3.38,1.91-.58,2.52.92,3.61,2.05,4.12,4.23,8.48,8.89,13.47,12.06,1.03.66,4.76,2.57,5.25,3.32.22.34.31.98.37,1.38.23,1.77.2,3.58.37,5.34v13.41Z"/>
  <path d="M90.67,41.34c-4.42,1.79-4.72,6.62-5.93,10.62-.44-.2-.78-.46-1.24-.65-1.98-.79-4-.56-5.63.83-4.79,4.09-8.33,9.36-13.73,13-1.76,1.18-3.76,2.12-5.48,3.28-3.68,2.49-2.32,8.24-2.87,12.06v14.34h22.13v-10.28c2.45-2.37,4.88-4.77,7.33-7.15,3.81-3.69,6.71-5.51,8.39-10.87,1.7-5.42,2.59-11.3,4.26-16.76,1.43-5.12-1.11-10.9-7.22-8.42ZM94.67,49.67c-.74,3.32-1.73,6.73-2.58,10.04-.92,3.59-1.47,7.7-3.98,10.58l-13.27,12.81-.05,8.57h-15.85c-.02-1.74.02-3.47,0-5.21-.05-4.49-.15-9.07.46-13.54.14-1.03.21-1.37,1.08-1.97,1.38-.95,3.09-1.73,4.54-2.65,5.77-3.68,10.13-8.94,14.94-13.73.72-.8,2.42-.61,3.08.15.47.54.24,2.26-.05,2.88l-11.04,12.64,2.35,2.07,11.31-12.93c.92-2.25,1.62-4.66,2.31-7,.6-2.02,1.16-5.78,2.6-7.26.67-.68,2.72-1.58,3.6-1.01,1.59,1.03.91,4.03.57,5.55Z"/>
  <path d="M76.93,33.32c2.21-7.17-1.4-15.14-8.64-17.49-4.94-1.6-9.27-.01-13.37,2.77-4.36-3.11-9.34-4.56-14.48-2.32-6.88,2.99-9.94,11.29-7.08,18.17,2.12,5.09,9.73,11.85,13.91,15.63,2.48,2.25,4.99,4.49,7.71,6.45,3.52-2.75,6.89-5.7,10.14-8.77,3.81-3.6,10.28-9.45,11.82-14.45ZM55.09,52.5c-2.03-1.67-4.07-3.34-6.02-5.1-3.65-3.3-10.18-9.1-12.4-13.32-3.71-7.06,1.2-15.56,9.25-15.74,3.31-.07,6.75,2.26,9.21,4.29,1.78-1.36,3.54-2.71,5.65-3.53,6.82-2.64,13.45,2.2,13.83,9.3.23,4.44-2.01,7.39-4.84,10.47-3.58,3.89-7.67,7.73-11.66,11.2-.36.31-2.82,2.41-3.01,2.43Z"/>
</svg>