<?xml version="1.0" encoding="UTF-8"?>
<svg id="Layer_1" data-name="Layer 1" xmlns="http://www.w3.org/2000/svg" viewBox="0 0 110 110">
  <path d="M88.7,68.86c-5.06-1.39-8.29,2.02-12.21,4.29-.13.08-.71.47-.81.37-.45-2.76-2.83-5.1-5.66-5.3-1.77-.13-3.9.04-5.71.09-5.68.15-11.44.87-17.09-.02-2.64-.42-7.56-2.06-9.93-1.57-2.15.44-5.32,3.76-6.97,5.34-3.32,3.19-6.36,6.62-9.45,10.02-1.65,1.82-3.41,3.55-4.92,5.49l19.18,17.81,8.41-9.11c4.65,0,9.28-.07,13.92-.18,3.2-.08,6.6.14,9.71-.72,3.94-1.09,7.55-4.06,10.94-6.25,3.29-2.12,6.66-4.13,9.93-6.29,1.88-1.24,3.71-2.5,4.88-4.49,2.58-4.39.38-8.23-4.24-9.5ZM90.08,75.58c-.64,2-4.05,3.94-5.77,5.07-2.73,1.79-5.52,3.49-8.26,5.26-3.95,2.56-7.76,5.89-12.71,6.19-5.9.36-12.07.25-18,.41-1.16.03-2.34-.1-3.49.1l-6.87,7.39-13.72-12.58c1.9-2.07,3.75-4.18,5.66-6.23,3.17-3.4,6.41-6.83,9.9-9.9.96-.85,1.29-1.11,2.62-.91,1.96.29,4.07.98,6.08,1.34,7.58,1.35,15.67.36,23.35.18,1.12-.03,1.8-.05,2.57.86,1.59,1.89.07,3.3-1.59,4.27l-19.92,2.12.33,3.75,19.1-2.04c2.45-.32,4.79-2.16,6.91-3.44,2.15-1.3,4.26-2.76,6.44-3.99,1.97-1.12,3.33-1.74,5.59-.84,1.47.59,2.31,1.3,1.77,2.99Z"/>
  <path d="M35.62,38.68c3.63,9.8,10.79,17.71,19.8,22.86,8.77-5.08,15.75-12.69,19.42-22.21,2.38-6.17,3.23-12.36,2.79-18.96-.02-.31.08-1.02-.08-1.22l-22.19-14.53-22.21,14.53c-.16.2-.06.84-.08,1.14-.46,6.4.32,12.38,2.55,18.39ZM36.73,21.34l18.55-12.24,18.67,12.34c.65,8.7-1.84,17.56-6.84,24.65-3.12,4.43-7.22,8.12-11.77,11.04-6.67-4.17-12.24-10.23-15.44-17.45-1.91-4.3-3.14-9.39-3.33-14.1-.05-1.37-.06-2.91.16-4.25Z"/>
  <polygon points="68.07 28.23 68.03 28.02 65.54 25.56 53.97 36.7 48.99 31.74 46.36 34.45 53.97 41.91 68.07 28.23"/>
</svg>