<?xml version="1.0" encoding="UTF-8"?>
<svg id="Layer_1" data-name="Layer 1" xmlns="http://www.w3.org/2000/svg" viewBox="0 0 110 110">
  <path d="M89.5,65.65c-4.95-.92-8.17,2.46-12.01,4.7-.13.07-.74.44-.82.37-.25-2.3-2.29-4.66-4.5-5.29-1.74-.5-3.99-.29-5.82-.24-6.71.17-13.57,1.04-20.24-.11-2.59-.45-7.18-1.98-9.55-1.51-2.31.46-5.49,3.81-7.24,5.49-4.77,4.57-9.37,9.72-13.78,14.66-.5.55-.97,1.14-1.44,1.71l20.3,18.64,8.81-9.54c5.36.08,10.7-.16,16.04-.28,2.41-.06,4.68.13,7.08-.29,4.82-.84,8.73-4.11,12.72-6.68,3.36-2.17,6.8-4.24,10.13-6.46,2.53-1.68,5.12-3.41,6.25-6.39,1.77-4.67-1.55-7.96-5.93-8.77ZM89.29,75.75c-6.34,3.73-12.47,8.69-18.89,12.18-4.89,2.66-9.08,2.23-14.49,2.36-4.88.12-9.77.05-14.64.28l-7.23,7.79c-.07.01-.95-.79-1.09-.91-4.21-3.81-8.43-7.68-12.55-11.58-.2-.19-.79-.65-.66-.92,1.92-2.01,3.73-4.11,5.62-6.15,3.35-3.61,6.95-7.44,10.66-10.66.98-.85,1.41-1.03,2.74-.81,1.82.31,3.73.92,5.58,1.27,7.68,1.43,14.98.61,22.7.38.98-.03,2.52-.17,3.42-.09,1.41.12,2.89,2.01,2.26,3.4-.18.4-1.22,1.4-1.6,1.64-.81.51-3.34.63-4.43.75-5.65.64-11.33,1.13-16.98,1.76l.41,3.87,20.09-2.11c2.38-.28,4.44-1.99,6.48-3.17,1.26-.73,2.58-1.38,3.83-2.14,3.15-1.93,6.28-5.09,10.16-2.95,2.96,1.63.45,4.51-1.38,5.84Z"/>
  <path d="M44.57,43.43l-4.15,4.15c4.05,4.06,9.48,6.7,15.11,7.71l.15.11v3.47h3.95v-3.16c3.62-.03,7.31-.75,10.05-3.25,4.99-4.55,4.65-13.67-.3-18.12-2.75-2.47-6.37-3.51-9.74-4.83v-14c2.98.41,5.79,1.68,8.47,2.97l2.58-5.2c-3.44-1.84-7.18-3.18-11.05-3.74v-3.6h-3.95v3.51c-5.19.5-10.21,3.25-11.54,8.6-1.51,6.05,1.92,11.22,6.9,14.26,1.47.9,3.1,1.49,4.64,2.2v14.79c-4.11-1.01-8.1-2.87-11.11-5.87ZM59.64,35.87c2.77.96,6.48,2.31,7.28,5.49.45,1.77.4,4.23-.57,5.82-1.3,2.13-4.39,2.64-6.71,2.55v-13.87ZM53.64,26.9c-2.21-1.49-4.02-3.39-3.93-6.26.12-3.43,2.97-4.82,5.97-5.31v12.64c-.14.15-1.8-.9-2.05-1.07Z"/>
</svg>